<?xml version="1.0" encoding="UTF-8" standalone="no"?>
<!DOCTYPE svg PUBLIC "-//W3C//DTD SVG 1.1//EN" "http://www.w3.org/Graphics/SVG/1.1/DTD/svg11.dtd">
<svg width="144px" height="144px" version="1.1" xmlns="http://www.w3.org/2000/svg" xmlns:xlink="http://www.w3.org/1999/xlink" xml:space="preserve" xmlns:serif="http://www.serif.com/" style="fill-rule:evenodd;clip-rule:evenodd;stroke-linejoin:round;stroke-miterlimit:2;">
    <g transform="matrix(0.444444,0,0,0.444444,8.582286,-20.888868)">
        <path d="M251.027,103.295L227.133,124.355L209.312,103.295L210.932,91.55L234.827,70.895L252.648,91.55L251.027,103.295ZM232.398,67.655L208.503,88.715L183.393,88.715L163.143,65.225L136.412,88.715L111.303,88.715L93.482,67.655L117.378,47L214.173,47L232.398,67.655ZM167.193,185.105L143.298,206.165L125.478,185.105L138.438,91.55L162.333,70.895L180.152,91.55L167.193,185.105ZM212.553,209L188.658,230.06L163.548,230.06L145.728,209L169.622,188.345L194.327,188.345L212.553,209ZM94.698,185.105L71.208,206.165L52.982,185.105L66.348,91.55L90.243,70.895L108.062,91.55L94.698,185.105ZM219.842,326.45L195.947,347.105L178.128,326.45L191.088,232.895L214.982,211.835L232.803,232.895L219.842,326.45ZM139.653,209L116.162,230.06L91.053,230.06L73.232,209L97.128,188.345L121.833,188.345L139.653,209ZM147.348,326.45L123.452,347.105L105.632,326.45L118.592,232.895L142.488,211.835L160.307,232.895L147.348,326.45ZM192.708,350.345L168.812,371L71.613,371L53.793,350.345L77.687,329.285L102.393,329.285L122.643,352.775L149.777,329.285L174.482,329.285L192.708,350.345ZM74.448,326.45L50.958,347.105L32.732,326.45L34.352,314.705L58.248,293.645L76.068,314.705L74.448,326.45Z" style="fill:white;fill-rule:nonzero;"/>
    </g>
</svg>
