<?xml version="1.0" encoding="UTF-8"?>
<!-- Generated by Pixelmator Pro 3.7.1 -->
<svg width="286" height="418" viewBox="0 0 286 418" xmlns="http://www.w3.org/2000/svg">
    <path id="Dollar-copia" fill="#ffffff" fill-rule="evenodd" stroke="none" d="M 251.027481 103.294983 L 227.132523 124.35498 L 209.3125 103.294983 L 210.93248 91.550018 L 234.827499 70.89502 L 252.647507 91.550018 Z M 232.397507 67.654999 L 208.502502 88.714996 L 183.392502 88.714996 L 163.142502 65.225006 L 136.412491 88.714996 L 111.302513 88.714996 L 93.482491 67.654999 L 117.377502 47 L 214.172501 47 Z M 167.192505 185.104996 L 143.297501 206.164978 L 125.477501 185.104996 L 138.4375 91.550018 L 162.332504 70.89502 L 180.152481 91.550018 Z M 212.552505 209 L 188.657501 230.059998 L 163.547501 230.059998 L 145.727524 209 L 169.622482 188.345001 L 194.327499 188.345001 Z M 94.697502 185.104996 L 71.207504 206.164978 L 52.982491 185.104996 L 66.347504 91.550018 L 90.2425 70.89502 L 108.062492 91.550018 Z M 219.842499 326.449982 L 195.947479 347.105011 L 178.127502 326.449982 L 191.087524 232.894989 L 214.982498 211.834991 L 232.802505 232.894989 Z M 139.652512 209 L 116.162491 230.059998 L 91.052513 230.059998 L 73.232491 209 L 97.127502 188.345001 L 121.832504 188.345001 Z M 147.347504 326.449982 L 123.452492 347.105011 L 105.632492 326.449982 L 118.592491 232.894989 L 142.487503 211.834991 L 160.30748 232.894989 Z M 192.707504 350.345001 L 168.8125 371 L 71.612503 371 L 53.792503 350.345001 L 77.687492 329.285004 L 102.392502 329.285004 L 122.642502 352.774994 L 149.777481 329.285004 L 174.482498 329.285004 Z M 74.447502 326.449982 L 50.957508 347.105011 L 32.732491 326.449982 L 34.352497 314.705017 L 58.247509 293.644989 L 76.067513 314.705017 Z"/>
</svg>
